<?xml version="1.0" encoding="UTF-8"?>
<svg width="142px" height="210px" viewBox="0 0 142 210" version="1.1" xmlns="http://www.w3.org/2000/svg" xmlns:xlink="http://www.w3.org/1999/xlink">
    <!-- Generator: Sketch 52.6 (67491) - http://www.bohemiancoding.com/sketch -->
    <title>emerald-logo-gem</title>
    <desc>Created with Sketch.</desc>
    <g id="Symbols" stroke="none" stroke-width="1" fill="none" fill-rule="evenodd">
        <g id="spec-/-logo-/-emerald-/-icon">
            <g id="emerald-logo-gem">
                <polygon id="Fill-10" fill="#19D886" points="70.947 47.3614 70.947 0.0734 0.79 46.5734 32.439 72.8844"></polygon>
                <polygon id="Fill-11" fill="#2EC4A5" points="71.0085 47.3209 109.4555 72.8839 141.1065 46.5729 71.0585 -0.0001 70.9465 0.0739 70.9465 47.3619"></polygon>
                <polygon id="Fill-12" fill="#19C27F" points="31.99 136.7159 31.99 73.1819 32.439 72.8839 0.79 46.5729 -7.56728014e-13 47.0969 -7.56728014e-13 162.8009 0.719 163.2779 32.369 136.9669"></polygon>
                <polygon id="Fill-13" fill="#39E2B9" points="141.1062 46.5728 109.4562 72.8838 109.9052 73.1818 109.9052 136.7158 109.5262 136.9678 141.1762 163.2798 141.8942 162.8018 141.8942 47.0968"></polygon>
                <polygon id="Fill-14" fill="#19F993" points="32.3689 136.9673 0.7199 163.2783 70.9469 209.8243 70.9469 162.5363"></polygon>
                <polygon id="Fill-15" fill="#33DB95" points="71.0085 162.5767 70.9465 162.5357 70.9465 209.8247 71.0585 209.8977 141.1765 163.2797 109.5265 136.9677"></polygon>
            </g>
        </g>
    </g>
</svg>